<svg width="66" height="62" viewBox="0 0 66 62" fill="none" xmlns="http://www.w3.org/2000/svg">
<path d="M6.76953 26.2871C6.76953 23.1556 7.44801 20.0547 8.76623 17.1615C10.0844 14.2684 12.0166 11.6396 14.4523 9.4253C16.8881 7.21098 19.7798 5.45448 22.9622 4.2561C26.1447 3.05772 29.5556 2.44092 33.0003 2.44092C36.445 2.44092 39.8559 3.05772 43.0384 4.2561C46.2208 5.45448 49.1125 7.21097 51.5483 9.42529C53.984 11.6396 55.9162 14.2684 57.2344 17.1615C58.5526 20.0547 59.2311 23.1555 59.2311 26.2871" stroke="#FCF1DC" stroke-width="3.5786" stroke-linecap="round"/>
<path d="M59.2324 35.8257C59.2324 38.9572 58.5539 42.0581 57.2357 44.9512C55.9175 47.8444 53.9854 50.4732 51.5496 52.6875C49.1139 54.9018 46.2222 56.6583 43.0397 57.8567C39.8573 59.0551 36.4463 59.6719 33.0017 59.6719C29.557 59.6719 26.146 59.0551 22.9636 57.8567C19.7811 56.6583 16.8894 54.9018 14.4537 52.6875C12.0179 50.4732 10.0858 47.8444 8.76758 44.9513C7.44936 42.0581 6.77088 38.9572 6.77088 35.8257" stroke="#FCF1DC" stroke-width="3.5786" stroke-linecap="round"/>
<path d="M54.4609 21.5178L59.2302 27.4794L63.9994 21.5178" stroke="#FCF1DC" stroke-width="2.38573" stroke-linecap="round" stroke-linejoin="round"/>
<path d="M11.541 39.4023L6.77178 33.4408L2.00255 39.4023" stroke="#FCF1DC" stroke-width="2.38573" stroke-linecap="round" stroke-linejoin="round"/>
<g clip-path="url(#clip0_2478_11009)">
<path opacity="0.2" d="M50.1206 39.0674C48.7628 41.9619 46.6956 44.4663 44.111 46.3481L42.2691 44.5043C42.0718 44.3062 41.8252 44.1643 41.5548 44.0931L37.33 42.9793C36.9555 42.8808 36.6305 42.6477 36.417 42.3246C36.2036 42.0016 36.1167 41.6111 36.173 41.228L36.6413 38.0402C36.6811 37.7711 36.7899 37.5169 36.9572 37.3024C37.1244 37.0879 37.3444 36.9204 37.5957 36.8163L43.5876 34.3251C43.8645 34.2101 44.1684 34.1767 44.4637 34.2286C44.7589 34.2806 45.0332 34.4158 45.2543 34.6183L50.1206 39.0674Z" fill="#FCF1DC"/>
<path opacity="0.2" d="M44.0208 20.4305C44.0207 20.8076 43.8852 21.172 43.6391 21.4577L39.2765 26.5306C39.0249 26.8229 38.6748 27.0126 38.2926 27.0639L32.102 27.9021C31.701 27.9553 31.2948 27.8532 30.9666 27.6168L27.0685 25.0587C26.8974 24.9343 26.7031 24.8457 26.497 24.798C26.291 24.7504 26.0774 24.7448 25.8691 24.7815C25.6609 24.8183 25.4621 24.8966 25.2848 25.0118C25.1075 25.1271 24.9552 25.2769 24.837 25.4522L20.7165 31.6114C20.5453 31.8686 20.453 32.1702 20.4508 32.4792L20.4075 39.6143C20.406 39.8738 20.3403 40.1288 20.2164 40.3568C20.0925 40.5848 19.9141 40.7785 19.6972 40.9209L17.7451 42.2039C15.0866 38.5761 13.8097 34.1188 14.1441 29.6336C14.4784 25.1484 16.4021 20.9296 19.5691 17.7361C22.7361 14.5425 26.9386 12.5837 31.4209 12.2119C35.9031 11.8401 40.3709 13.0797 44.0208 15.7078V20.4305Z" fill="#FCF1DC"/>
<path d="M33 49.947C43.433 49.947 51.8906 41.4894 51.8906 31.0564C51.8906 20.6234 43.433 12.1658 33 12.1658C22.567 12.1658 14.1094 20.6234 14.1094 31.0564C14.1094 41.4894 22.567 49.947 33 49.947Z" stroke="#FCF1DC" stroke-width="3.87682" stroke-linecap="round" stroke-linejoin="round"/>
<path d="M44.1031 46.3422L42.2613 44.4984C42.0639 44.3003 41.8174 44.1584 41.547 44.0872L37.33 42.9793C36.9555 42.8808 36.6305 42.6477 36.417 42.3246C36.2036 42.0016 36.1167 41.6111 36.173 41.228L36.6413 38.0402C36.6811 37.7711 36.7899 37.5169 36.9572 37.3024C37.1244 37.0879 37.3444 36.9204 37.5957 36.8163L43.5876 34.3251C43.8645 34.2101 44.1684 34.1767 44.4637 34.2286C44.7589 34.2806 45.0332 34.4158 45.2543 34.6183L50.1206 39.0674" stroke="#FCF1DC" stroke-width="3.87682" stroke-linecap="round" stroke-linejoin="round"/>
<path d="M17.7461 42.2038L19.6981 40.9208C19.9143 40.778 20.0919 40.584 20.2151 40.3561C20.3384 40.1282 20.4034 39.8734 20.4046 39.6142L20.4459 32.485C20.448 32.176 20.5403 31.8744 20.7115 31.6172L24.832 25.4581C24.9502 25.2827 25.1025 25.1329 25.2798 25.0177C25.4572 24.9024 25.6559 24.8241 25.8642 24.7874C26.0725 24.7506 26.286 24.7563 26.4921 24.8039C26.6981 24.8515 26.8925 24.9401 27.0635 25.0645L30.9617 27.6226C31.2899 27.8591 31.6961 27.9611 32.0971 27.908L38.2877 27.0697C38.6699 27.0184 39.02 26.8287 39.2716 26.5364L43.6361 21.4537C43.8814 21.1691 44.0168 20.8061 44.0178 20.4304V15.7078" stroke="#FCF1DC" stroke-width="3.87682" stroke-linecap="round" stroke-linejoin="round"/>
</g>
<defs>
<clipPath id="clip0_2478_11009">
<rect width="50.375" height="50.375" fill="white" transform="translate(7.8125 5.8689)"/>
</clipPath>
</defs>
</svg>
